<svg width="238" height="301" viewBox="0 0 238 301" fill="none" xmlns="http://www.w3.org/2000/svg">
<g filter="url(#filter0_d_50_42)">
<path d="M72.9199 150.438C72.9199 106.126 108.842 70.2044 153.154 70.2044C197.465 70.2044 233.387 106.126 233.387 150.438C233.387 194.75 197.465 230.672 153.154 230.672C108.842 230.672 72.9199 194.75 72.9199 150.438Z" fill="url(#paint0_radial_50_42)"/>
</g>
<g filter="url(#filter1_df_50_42)">
<path d="M35 157.712C35 135.621 52.9086 117.712 75 117.712H155C177.091 117.712 195 135.621 195 157.712C195 179.803 177.091 197.712 155 197.712H75C52.9086 197.712 35 179.803 35 157.712Z" fill="white" fill-opacity="0.8" shape-rendering="crispEdges"/>
</g>
<g filter="url(#filter2_f_50_42)">
<path d="M75.6992 139.997C75.6992 122.324 90.0261 107.997 107.699 107.997H171.699C189.372 107.997 203.699 122.324 203.699 139.997C203.699 157.671 189.372 171.997 171.699 171.997H107.699C90.0261 171.997 75.6992 157.671 75.6992 139.997Z" fill="white" fill-opacity="0.7"/>
</g>
<g filter="url(#filter3_f_50_42)">
<path d="M121.155 183.17C121.155 165.498 135.481 151.172 153.154 151.172H201.153C218.825 151.172 233.152 165.498 233.152 183.17C233.152 200.842 218.825 215.168 201.153 215.168H153.154C135.481 215.168 121.155 200.842 121.155 183.17Z" fill="#DBEAFE" fill-opacity="0.65"/>
</g>
<g opacity="0.0715163">
<path d="M69.1523 227.098C69.1523 226.546 69.6001 226.098 70.1523 226.098C70.7046 226.098 71.1523 226.546 71.1523 227.098V241.098C71.1523 241.651 70.7046 242.098 70.1523 242.098C69.6001 242.098 69.1523 241.651 69.1523 241.098V227.098Z" fill="#CEFAFE" fill-opacity="0.35"/>
</g>
<g opacity="0.140658">
<path d="M82.1465 224.135C82.1465 223.583 82.5942 223.135 83.1465 223.135C83.6988 223.135 84.1465 223.583 84.1465 224.135V238.135C84.1465 238.687 83.6988 239.135 83.1465 239.135C82.5942 239.135 82.1465 238.687 82.1465 238.135V224.135Z" fill="#CEFAFE" fill-opacity="0.35"/>
</g>
<g opacity="0.226119">
<path d="M95.1484 220.473C95.1484 219.92 95.5962 219.473 96.1484 219.473C96.7007 219.473 97.1484 219.92 97.1484 220.473V234.473C97.1484 235.025 96.7007 235.473 96.1484 235.473C95.5962 235.473 95.1484 235.025 95.1484 234.473V220.473Z" fill="#CEFAFE" fill-opacity="0.35"/>
</g>
<g opacity="0.32536">
<path d="M108.151 216.204C108.151 215.652 108.599 215.204 109.151 215.204C109.704 215.204 110.151 215.652 110.151 216.204V230.204C110.151 230.756 109.704 231.204 109.151 231.204C108.599 231.204 108.151 230.756 108.151 230.204V216.204Z" fill="#CEFAFE" fill-opacity="0.35"/>
</g>
<g opacity="0.263206">
<path d="M121.153 211.428C121.153 210.876 121.601 210.428 122.153 210.428C122.706 210.428 123.153 210.876 123.153 211.428V225.428C123.153 225.98 122.706 226.428 122.153 226.428C121.601 226.428 121.153 225.98 121.153 225.428V211.428Z" fill="#CEFAFE" fill-opacity="0.35"/>
</g>
<g opacity="0.140294">
<path d="M134.147 206.169C134.147 205.617 134.595 205.169 135.147 205.169C135.7 205.169 136.147 205.617 136.147 206.169V220.169C136.147 220.721 135.7 221.169 135.147 221.169C134.595 221.169 134.147 220.721 134.147 220.169V206.169Z" fill="#CEFAFE" fill-opacity="0.35"/>
</g>
<g opacity="0.01">
<path d="M147.149 200.358C147.149 199.806 147.597 199.358 148.149 199.358C148.702 199.358 149.149 199.806 149.149 200.358V214.358C149.149 214.911 148.702 215.358 148.149 215.358C147.597 215.358 147.149 214.911 147.149 214.358V200.358Z" fill="#CEFAFE" fill-opacity="0.35"/>
</g>
<g opacity="0.016373">
<path d="M160.152 229.46C160.152 228.908 160.6 228.46 161.152 228.46C161.705 228.46 162.152 228.908 162.152 229.46V243.46C162.152 244.012 161.705 244.46 161.152 244.46C160.6 244.46 160.152 244.012 160.152 243.46V229.46Z" fill="#CEFAFE" fill-opacity="0.35"/>
</g>
<g opacity="0.448128" filter="url(#filter4_f_50_42)">
<path d="M55.9775 169.165C55.9775 168.06 56.873 167.165 57.9775 167.165H181.978C183.082 167.165 183.978 168.06 183.978 169.165C183.978 170.269 183.082 171.165 181.978 171.165H57.9775C56.873 171.165 55.9775 170.269 55.9775 169.165Z" fill="white" fill-opacity="0.7"/>
</g>
<defs>
<filter id="filter0_d_50_42" x="2.71552" y="7.62939e-06" width="300.876" height="300.876" filterUnits="userSpaceOnUse" color-interpolation-filters="sRGB">
<feFlood flood-opacity="0" result="BackgroundImageFix"/>
<feColorMatrix in="SourceAlpha" type="matrix" values="0 0 0 0 0 0 0 0 0 0 0 0 0 0 0 0 0 0 127 0" result="hardAlpha"/>
<feOffset/>
<feGaussianBlur stdDeviation="35.1022"/>
<feComposite in2="hardAlpha" operator="out"/>
<feColorMatrix type="matrix" values="0 0 0 0 1 0 0 0 0 0.737255 0 0 0 0 0.298039 0 0 0 0.82 0"/>
<feBlend mode="normal" in2="BackgroundImageFix" result="effect1_dropShadow_50_42"/>
<feBlend mode="normal" in="SourceGraphic" in2="effect1_dropShadow_50_42" result="shape"/>
</filter>
<filter id="filter1_df_50_42" x="0" y="100.712" width="230" height="150" filterUnits="userSpaceOnUse" color-interpolation-filters="sRGB">
<feFlood flood-opacity="0" result="BackgroundImageFix"/>
<feColorMatrix in="SourceAlpha" type="matrix" values="0 0 0 0 0 0 0 0 0 0 0 0 0 0 0 0 0 0 127 0" result="hardAlpha"/>
<feOffset dy="18"/>
<feGaussianBlur stdDeviation="17.5"/>
<feComposite in2="hardAlpha" operator="out"/>
<feColorMatrix type="matrix" values="0 0 0 0 1 0 0 0 0 1 0 0 0 0 1 0 0 0 0.35 0"/>
<feBlend mode="normal" in2="BackgroundImageFix" result="effect1_dropShadow_50_42"/>
<feBlend mode="normal" in="SourceGraphic" in2="effect1_dropShadow_50_42" result="shape"/>
<feGaussianBlur stdDeviation="1" result="effect2_foregroundBlur_50_42"/>
</filter>
<filter id="filter2_f_50_42" x="73.6992" y="105.997" width="132" height="68" filterUnits="userSpaceOnUse" color-interpolation-filters="sRGB">
<feFlood flood-opacity="0" result="BackgroundImageFix"/>
<feBlend mode="normal" in="SourceGraphic" in2="BackgroundImageFix" result="shape"/>
<feGaussianBlur stdDeviation="1" result="effect1_foregroundBlur_50_42"/>
</filter>
<filter id="filter3_f_50_42" x="119.155" y="149.172" width="115.996" height="67.9966" filterUnits="userSpaceOnUse" color-interpolation-filters="sRGB">
<feFlood flood-opacity="0" result="BackgroundImageFix"/>
<feBlend mode="normal" in="SourceGraphic" in2="BackgroundImageFix" result="shape"/>
<feGaussianBlur stdDeviation="1" result="effect1_foregroundBlur_50_42"/>
</filter>
<filter id="filter4_f_50_42" x="39.9775" y="151.165" width="160" height="36" filterUnits="userSpaceOnUse" color-interpolation-filters="sRGB">
<feFlood flood-opacity="0" result="BackgroundImageFix"/>
<feBlend mode="normal" in="SourceGraphic" in2="BackgroundImageFix" result="shape"/>
<feGaussianBlur stdDeviation="8" result="effect1_foregroundBlur_50_42"/>
</filter>
<radialGradient id="paint0_radial_50_42" cx="0" cy="0" r="1" gradientUnits="userSpaceOnUse" gradientTransform="translate(129.083 121.554) rotate(-90) scale(150.95)">
<stop stop-color="white"/>
<stop offset="0.12" stop-color="white"/>
<stop offset="0.22" stop-color="#FFF2A6"/>
<stop offset="0.48" stop-color="#FFBB4D"/>
<stop offset="0.78" stop-color="#FF735F"/>
</radialGradient>
</defs>
</svg>
